<svg width="1440" height="1024" viewBox="0 0 1440 1024" fill="none" xmlns="http://www.w3.org/2000/svg">
<rect width="1440" height="1024" fill="white"/>
<path d="M389.734 869.812L404.5 909.047L419.23 869.812H430.727V921H421.867V904.125L422.746 881.555L407.629 921H401.266L386.184 881.59L387.062 904.125V921H378.203V869.812H389.734ZM453.754 908.766L461.488 882.961H470.594L455.477 926.766C453.156 933.164 449.219 936.363 443.664 936.363C442.422 936.363 441.051 936.152 439.551 935.73V929.121L441.168 929.227C443.324 929.227 444.941 928.828 446.02 928.031C447.121 927.258 447.988 925.945 448.621 924.094L449.852 920.824L436.492 882.961H445.703L453.754 908.766ZM495.73 921V889.289H489.93V882.961H495.73V880.359C495.754 877.383 496.387 874.828 497.629 872.695C498.871 870.562 500.629 868.957 502.902 867.879C505.176 866.801 507.906 866.262 511.094 866.262C512.969 866.262 514.762 866.461 516.473 866.859C518.207 867.258 520 867.762 521.852 868.371L520.551 875.438C517.316 874.312 514.363 873.75 511.691 873.75C509.09 873.75 507.203 874.324 506.031 875.473C504.859 876.598 504.273 878.297 504.273 880.57V882.961H511.762V889.289H504.273V921H495.73ZM525.895 921H517.352V882.961H525.895V921ZM555.285 890.766C554.16 890.578 553 890.484 551.805 890.484C547.891 890.484 545.254 891.984 543.895 894.984V921H535.352V882.961H543.508L543.719 887.215C545.781 883.91 548.641 882.258 552.297 882.258C553.516 882.258 554.523 882.422 555.32 882.75L555.285 890.766ZM582.004 910.664C582.004 909.141 581.371 907.98 580.105 907.184C578.863 906.387 576.789 905.684 573.883 905.074C570.977 904.465 568.551 903.691 566.605 902.754C562.34 900.691 560.207 897.703 560.207 893.789C560.207 890.508 561.59 887.766 564.355 885.562C567.121 883.359 570.637 882.258 574.902 882.258C579.449 882.258 583.117 883.383 585.906 885.633C588.719 887.883 590.125 890.801 590.125 894.387H581.582C581.582 892.746 580.973 891.387 579.754 890.309C578.535 889.207 576.918 888.656 574.902 888.656C573.027 888.656 571.492 889.09 570.297 889.957C569.125 890.824 568.539 891.984 568.539 893.438C568.539 894.75 569.09 895.77 570.191 896.496C571.293 897.223 573.52 897.961 576.871 898.711C580.223 899.438 582.848 900.316 584.746 901.348C586.668 902.355 588.086 903.574 589 905.004C589.938 906.434 590.406 908.168 590.406 910.207C590.406 913.629 588.988 916.406 586.152 918.539C583.316 920.648 579.602 921.703 575.008 921.703C571.891 921.703 569.113 921.141 566.676 920.016C564.238 918.891 562.34 917.344 560.98 915.375C559.621 913.406 558.941 911.285 558.941 909.012H567.238C567.355 911.027 568.117 912.586 569.523 913.688C570.93 914.766 572.793 915.305 575.113 915.305C577.363 915.305 579.074 914.883 580.246 914.039C581.418 913.172 582.004 912.047 582.004 910.664ZM608.582 873.715V882.961H615.297V889.289H608.582V910.523C608.582 911.977 608.863 913.031 609.426 913.688C610.012 914.32 611.043 914.637 612.52 914.637C613.504 914.637 614.5 914.52 615.508 914.285V920.895C613.562 921.434 611.688 921.703 609.883 921.703C603.32 921.703 600.039 918.082 600.039 910.84V889.289H593.781V882.961H600.039V873.715H608.582ZM659.418 901.277H649.504V921H640.609V869.812H658.609C664.516 869.812 669.074 871.137 672.285 873.785C675.496 876.434 677.102 880.266 677.102 885.281C677.102 888.703 676.27 891.574 674.605 893.895C672.965 896.191 670.668 897.961 667.715 899.203L679.211 920.543V921H669.684L659.418 901.277ZM649.504 894.141H658.645C661.645 894.141 663.988 893.391 665.676 891.891C667.363 890.367 668.207 888.293 668.207 885.668C668.207 882.926 667.422 880.805 665.852 879.305C664.305 877.805 661.984 877.031 658.891 876.984H649.504V894.141ZM701.465 921.703C696.051 921.703 691.656 920.004 688.281 916.605C684.93 913.184 683.254 908.637 683.254 902.965V901.91C683.254 898.113 683.98 894.727 685.434 891.75C686.91 888.75 688.973 886.418 691.621 884.754C694.27 883.09 697.223 882.258 700.48 882.258C705.66 882.258 709.656 883.91 712.469 887.215C715.305 890.52 716.723 895.195 716.723 901.242V904.688H691.867C692.125 907.828 693.168 910.312 694.996 912.141C696.848 913.969 699.168 914.883 701.957 914.883C705.871 914.883 709.059 913.301 711.52 910.137L716.125 914.531C714.602 916.805 712.562 918.574 710.008 919.84C707.477 921.082 704.629 921.703 701.465 921.703ZM700.445 889.113C698.102 889.113 696.203 889.934 694.75 891.574C693.32 893.215 692.406 895.5 692.008 898.43H708.285V897.797C708.098 894.938 707.336 892.781 706 891.328C704.664 889.852 702.812 889.113 700.445 889.113ZM746.113 921C745.738 920.273 745.41 919.09 745.129 917.449C742.41 920.285 739.082 921.703 735.145 921.703C731.324 921.703 728.207 920.613 725.793 918.434C723.379 916.254 722.172 913.559 722.172 910.348C722.172 906.293 723.672 903.188 726.672 901.031C729.695 898.852 734.008 897.762 739.609 897.762H744.848V895.266C744.848 893.297 744.297 891.727 743.195 890.555C742.094 889.359 740.418 888.762 738.168 888.762C736.223 888.762 734.629 889.254 733.387 890.238C732.145 891.199 731.523 892.43 731.523 893.93H722.98C722.98 891.844 723.672 889.898 725.055 888.094C726.438 886.266 728.312 884.836 730.68 883.805C733.07 882.773 735.73 882.258 738.66 882.258C743.113 882.258 746.664 883.383 749.312 885.633C751.961 887.859 753.32 891 753.391 895.055V912.211C753.391 915.633 753.871 918.363 754.832 920.402V921H746.113ZM736.727 914.848C738.414 914.848 739.996 914.438 741.473 913.617C742.973 912.797 744.098 911.695 744.848 910.312V903.141H740.242C737.078 903.141 734.699 903.691 733.105 904.793C731.512 905.895 730.715 907.453 730.715 909.469C730.715 911.109 731.254 912.422 732.332 913.406C733.434 914.367 734.898 914.848 736.727 914.848ZM777.965 914.883C780.098 914.883 781.867 914.262 783.273 913.02C784.68 911.777 785.43 910.242 785.523 908.414H793.574C793.48 910.781 792.742 912.996 791.359 915.059C789.977 917.098 788.102 918.715 785.734 919.91C783.367 921.105 780.812 921.703 778.07 921.703C772.75 921.703 768.531 919.98 765.414 916.535C762.297 913.09 760.738 908.332 760.738 902.262V901.383C760.738 895.594 762.285 890.965 765.379 887.496C768.473 884.004 772.691 882.258 778.035 882.258C782.559 882.258 786.238 883.582 789.074 886.23C791.934 888.855 793.434 892.312 793.574 896.602H785.523C785.43 894.422 784.68 892.629 783.273 891.223C781.891 889.816 780.121 889.113 777.965 889.113C775.199 889.113 773.066 890.121 771.566 892.137C770.066 894.129 769.305 897.164 769.281 901.242V902.613C769.281 906.738 770.02 909.82 771.496 911.859C772.996 913.875 775.152 914.883 777.965 914.883ZM810.73 873.715V882.961H817.445V889.289H810.73V910.523C810.73 911.977 811.012 913.031 811.574 913.688C812.16 914.32 813.191 914.637 814.668 914.637C815.652 914.637 816.648 914.52 817.656 914.285V920.895C815.711 921.434 813.836 921.703 812.031 921.703C805.469 921.703 802.188 918.082 802.188 910.84V889.289H795.93V882.961H802.188V873.715H810.73ZM875.242 902.367C875.242 908.25 873.906 912.949 871.234 916.465C868.562 919.957 864.977 921.703 860.477 921.703C856.305 921.703 852.965 920.332 850.457 917.59V935.625H841.914V882.961H849.789L850.141 886.828C852.648 883.781 856.059 882.258 860.371 882.258C865.012 882.258 868.645 883.992 871.27 887.461C873.918 890.906 875.242 895.699 875.242 901.84V902.367ZM866.734 901.629C866.734 897.832 865.973 894.82 864.449 892.594C862.949 890.367 860.793 889.254 857.98 889.254C854.488 889.254 851.98 890.695 850.457 893.578V910.453C852.004 913.406 854.535 914.883 858.051 914.883C860.77 914.883 862.891 913.793 864.414 911.613C865.961 909.41 866.734 906.082 866.734 901.629ZM902.418 890.766C901.293 890.578 900.133 890.484 898.938 890.484C895.023 890.484 892.387 891.984 891.027 894.984V921H882.484V882.961H890.641L890.852 887.215C892.914 883.91 895.773 882.258 899.43 882.258C900.648 882.258 901.656 882.422 902.453 882.75L902.418 890.766ZM904.949 901.629C904.949 897.902 905.688 894.551 907.164 891.574C908.641 888.574 910.715 886.277 913.387 884.684C916.059 883.066 919.129 882.258 922.598 882.258C927.73 882.258 931.891 883.91 935.078 887.215C938.289 890.52 940.023 894.902 940.281 900.363L940.316 902.367C940.316 906.117 939.59 909.469 938.137 912.422C936.707 915.375 934.645 917.66 931.949 919.277C929.277 920.895 926.184 921.703 922.668 921.703C917.301 921.703 913 919.922 909.766 916.359C906.555 912.773 904.949 908.004 904.949 902.051V901.629ZM913.492 902.367C913.492 906.281 914.301 909.352 915.918 911.578C917.535 913.781 919.785 914.883 922.668 914.883C925.551 914.883 927.789 913.758 929.383 911.508C931 909.258 931.809 905.965 931.809 901.629C931.809 897.785 930.977 894.738 929.312 892.488C927.672 890.238 925.434 889.113 922.598 889.113C919.809 889.113 917.594 890.227 915.953 892.453C914.312 894.656 913.492 897.961 913.492 902.367ZM956.453 882.961V924.375C956.453 928.266 955.48 931.23 953.535 933.27C951.613 935.332 948.789 936.363 945.062 936.363C943.492 936.363 941.98 936.164 940.527 935.766V929.016C941.418 929.227 942.426 929.332 943.551 929.332C946.387 929.332 947.84 927.785 947.91 924.691V882.961H956.453ZM947.172 873.082C947.172 871.77 947.582 870.68 948.402 869.812C949.246 868.945 950.441 868.512 951.988 868.512C953.535 868.512 954.73 868.945 955.574 869.812C956.418 870.68 956.84 871.77 956.84 873.082C956.84 874.371 956.418 875.449 955.574 876.316C954.73 877.16 953.535 877.582 951.988 877.582C950.441 877.582 949.246 877.16 948.402 876.316C947.582 875.449 947.172 874.371 947.172 873.082ZM982.363 921.703C976.949 921.703 972.555 920.004 969.18 916.605C965.828 913.184 964.152 908.637 964.152 902.965V901.91C964.152 898.113 964.879 894.727 966.332 891.75C967.809 888.75 969.871 886.418 972.52 884.754C975.168 883.09 978.121 882.258 981.379 882.258C986.559 882.258 990.555 883.91 993.367 887.215C996.203 890.52 997.621 895.195 997.621 901.242V904.688H972.766C973.023 907.828 974.066 910.312 975.895 912.141C977.746 913.969 980.066 914.883 982.855 914.883C986.77 914.883 989.957 913.301 992.418 910.137L997.023 914.531C995.5 916.805 993.461 918.574 990.906 919.84C988.375 921.082 985.527 921.703 982.363 921.703ZM981.344 889.113C979 889.113 977.102 889.934 975.648 891.574C974.219 893.215 973.305 895.5 972.906 898.43H989.184V897.797C988.996 894.938 988.234 892.781 986.898 891.328C985.562 889.852 983.711 889.113 981.344 889.113ZM1019.91 914.883C1022.04 914.883 1023.81 914.262 1025.22 913.02C1026.62 911.777 1027.38 910.242 1027.47 908.414H1035.52C1035.43 910.781 1034.69 912.996 1033.3 915.059C1031.92 917.098 1030.05 918.715 1027.68 919.91C1025.31 921.105 1022.76 921.703 1020.02 921.703C1014.7 921.703 1010.48 919.98 1007.36 916.535C1004.24 913.09 1002.68 908.332 1002.68 902.262V901.383C1002.68 895.594 1004.23 890.965 1007.32 887.496C1010.42 884.004 1014.64 882.258 1019.98 882.258C1024.5 882.258 1028.18 883.582 1031.02 886.23C1033.88 888.855 1035.38 892.312 1035.52 896.602H1027.47C1027.38 894.422 1026.62 892.629 1025.22 891.223C1023.84 889.816 1022.07 889.113 1019.91 889.113C1017.14 889.113 1015.01 890.121 1013.51 892.137C1012.01 894.129 1011.25 897.164 1011.23 901.242V902.613C1011.23 906.738 1011.96 909.82 1013.44 911.859C1014.94 913.875 1017.1 914.883 1019.91 914.883ZM1052.68 873.715V882.961H1059.39V889.289H1052.68V910.523C1052.68 911.977 1052.96 913.031 1053.52 913.688C1054.11 914.32 1055.14 914.637 1056.61 914.637C1057.6 914.637 1058.59 914.52 1059.6 914.285V920.895C1057.66 921.434 1055.78 921.703 1053.98 921.703C1047.41 921.703 1044.13 918.082 1044.13 910.84V889.289H1037.88V882.961H1044.13V873.715H1052.68Z" fill="black"/>
<g clip-path="url(#clip0)">
<path d="M933.68 414.79L940.57 412.09C941.23 411.83 941.88 411.55 942.57 411.28C929.819 406.585 919.045 397.691 912.02 386.061C904.994 374.43 902.136 360.755 903.914 347.285C905.692 333.814 912 321.349 921.803 311.939C931.605 302.53 944.318 296.736 957.85 295.51L953.05 319.71L971.27 295.79H971.43C987.158 297.952 1001.38 306.273 1010.98 318.921C1020.57 331.57 1024.75 347.512 1022.59 363.24C1022.44 364.37 1022.2 365.47 1021.99 366.58C1027.6 362.15 1032.86 357.26 1036.8 351.58C1044.8 340.04 1047.51 325.82 1050.27 308.41C1055.74 273.93 1060.67 239.07 1065.11 204.23C1051.48 200.117 1039.76 191.275 1032.06 179.294C1024.36 167.314 1021.19 152.98 1023.11 138.87C1023.36 137.05 1023.71 135.28 1024.11 133.53C1024.21 133.09 1024.31 132.65 1024.42 132.22C1024.85 130.53 1025.33 128.87 1025.89 127.22C1025.98 126.95 1026.1 126.7 1026.19 126.44C1026.69 125.07 1027.19 123.72 1027.84 122.44C1028.06 121.94 1028.28 121.44 1028.51 120.97C1029.2 119.54 1029.93 118.14 1030.73 116.78C1031 116.33 1031.29 115.9 1031.56 115.45C1032.18 114.45 1032.83 113.45 1033.5 112.52C1033.86 112.02 1034.21 111.52 1034.58 111.03L1034.85 110.64C1043.34 99.5268 1055.46 91.7404 1069.09 88.6346C1082.73 85.5288 1097.02 87.2999 1109.49 93.64L1103.25 125.13L1121.25 101.49C1130.93 109.693 1137.74 120.776 1140.67 133.121C1143.61 145.466 1142.52 158.427 1137.57 170.11H1137.64C1137.47 170.51 1137.26 170.89 1137.09 171.29C1136.76 172.03 1136.42 172.76 1136.09 173.49C1135.63 174.42 1135.09 175.33 1134.64 176.23C1134.26 176.91 1133.89 177.59 1133.48 178.23C1132.89 179.23 1132.25 180.13 1131.61 181.06C1131.23 181.6 1130.88 182.16 1130.49 182.69C1129.49 184.08 1128.37 185.41 1127.23 186.69C1126.83 187.14 1126.4 187.55 1125.98 187.99C1125.17 188.85 1124.36 189.7 1123.5 190.51C1122.97 191.01 1122.41 191.51 1121.86 191.97C1121.07 192.67 1120.26 193.35 1119.43 193.97C1118.84 194.44 1118.24 194.89 1117.64 195.33C1116.77 195.96 1115.89 196.55 1115 197.14C1114.4 197.53 1113.8 197.92 1113.19 198.29C1112.19 198.9 1111.14 199.46 1110.09 200.01C1109.56 200.28 1109.09 200.58 1108.5 200.84C1106.92 201.61 1105.3 202.32 1103.65 202.95C1103.34 203.07 1103.01 203.16 1102.7 203.27C1101.32 203.77 1099.93 204.27 1098.52 204.62C1097.91 204.79 1097.29 204.93 1096.67 205.08C1095.52 205.36 1094.36 205.62 1093.19 205.84C1092.52 205.96 1091.83 206.07 1091.12 206.17C1089.97 206.34 1088.81 206.47 1087.64 206.57C1086.95 206.63 1086.27 206.69 1085.57 206.73C1084.31 206.79 1083.04 206.8 1081.77 206.79C1081.69 206.785 1081.6 206.785 1081.52 206.79C1079.64 221.457 1077.67 236.123 1075.6 250.79C1080.45 244.243 1086.59 238.756 1093.63 234.664C1100.68 230.573 1108.48 227.964 1116.57 226.998C1124.66 226.032 1132.87 226.728 1140.68 229.045C1148.49 231.361 1155.74 235.249 1162 240.47L1146.32 267.05L1171.53 250.46C1181.06 263.075 1185.2 278.958 1183.03 294.62C1182.29 300.119 1180.78 305.486 1178.53 310.56C1173.72 321.547 1165.71 330.834 1155.56 337.215C1145.4 343.596 1133.56 346.778 1121.58 346.347C1109.59 345.916 1098.01 341.891 1088.34 334.797C1078.67 327.702 1071.35 317.864 1067.34 306.56C1067.11 308.04 1066.89 309.56 1066.66 311.02C1064.22 326.37 1061.19 345.48 1050.43 361.02C1043.14 371.58 1033.1 379.38 1023.34 386.24C1016.99 390.707 1010.5 394.963 1003.86 399.01C996.89 405.473 988.482 410.183 979.33 412.75C968.663 418.21 957.767 423.147 946.64 427.56L939.69 430.28C933.44 432.72 927.04 435.22 920.69 437.88C921.69 437.97 922.69 438.05 923.69 438.18C936.273 439.908 947.981 445.59 957.123 454.407C966.265 463.224 972.368 474.718 974.55 487.23L932.24 510.34L974.42 508.45C972.731 517.803 968.814 526.612 963 534.13C953.462 546.476 939.482 554.612 924.036 556.805C908.589 558.997 892.897 555.074 880.3 545.87L882.4 549.78C883.8 552.36 885.18 554.93 886.52 557.48C904.85 592.22 906.18 622.22 890.27 641.97L877.27 631.52C892.76 612.3 880.47 581.75 871.77 565.25C870.45 562.75 869.09 560.25 867.77 557.69C856 535.86 842.65 511.12 848 484.79C856 445.09 899.05 428.29 933.68 414.79Z" fill="#F2F2F2"/>
<path d="M435.6 603.01L430.22 600.9C429.7 600.7 429.22 600.47 428.68 600.27C438.635 596.599 447.044 589.651 452.527 580.568C458.01 571.484 460.241 560.806 458.852 550.287C457.463 539.769 452.537 530.036 444.884 522.687C437.231 515.338 427.306 510.811 416.74 509.85L420.49 528.75L406.27 510.07H406.14C400.054 510.901 394.191 512.923 388.887 516.021C383.582 519.118 378.94 523.231 375.226 528.123C371.511 533.015 368.797 538.591 367.238 544.532C365.679 550.474 365.306 556.664 366.14 562.75C366.26 563.64 366.45 564.49 366.61 565.36C362.198 562.043 358.302 558.09 355.05 553.63C348.82 544.63 346.68 533.51 344.52 519.92C340.29 492.99 336.45 465.77 333 438.59C343.644 435.372 352.791 428.464 358.797 419.107C364.804 409.75 367.276 398.557 365.77 387.54C365.57 386.12 365.3 384.74 364.98 383.37L364.74 382.37C364.4 381.05 364.03 379.75 363.59 378.49C363.52 378.28 363.43 378.08 363.35 377.88C362.96 376.81 362.53 375.76 362.07 374.73C361.89 374.35 361.72 373.96 361.54 373.58C361 372.47 360.43 371.38 359.81 370.32C359.6 369.96 359.37 369.62 359.16 369.32C358.67 368.54 358.16 367.77 357.64 367.03C357.36 366.64 357.09 366.24 356.8 365.86L356.59 365.56C349.959 356.882 340.499 350.799 329.852 348.366C319.205 345.933 308.042 347.303 298.3 352.24L303.18 376.84L289.11 358.38C281.549 364.787 276.235 373.442 273.941 383.083C271.647 392.723 272.495 402.845 276.36 411.97H276.31C276.44 412.28 276.6 412.58 276.74 412.89C277 413.47 277.26 414.04 277.54 414.61C277.9 415.33 278.28 416.04 278.68 416.74C278.97 417.28 279.26 417.81 279.58 418.33C280.04 419.08 280.58 419.81 281.04 420.54C281.34 420.96 281.61 421.4 281.92 421.81C282.72 422.89 283.57 423.93 284.46 424.94C284.77 425.29 285.11 425.61 285.46 425.94C286.09 426.61 286.73 427.27 287.4 427.94C287.81 428.34 288.25 428.71 288.68 429.08C289.3 429.633 289.93 430.163 290.57 430.67C291.03 431.03 291.5 431.38 291.97 431.73C292.65 432.22 293.34 432.73 294.03 433.14C294.5 433.45 294.97 433.75 295.45 434.04C296.24 434.52 297.05 434.95 297.87 435.38C298.29 435.6 298.69 435.83 299.11 436.04C300.35 436.64 301.61 437.19 302.9 437.68C303.14 437.78 303.4 437.84 303.64 437.93C304.71 438.32 305.8 438.68 306.91 438.99C307.38 439.12 307.91 439.23 308.35 439.34C309.25 439.56 310.15 439.77 311.07 439.94L312.68 440.2C313.58 440.33 314.49 440.43 315.4 440.51C315.94 440.56 316.47 440.6 317.02 440.63C318.02 440.68 319.02 440.69 320.02 440.68H320.21C321.677 452.16 323.217 463.63 324.83 475.09C321.049 469.969 316.262 465.676 310.762 462.472C305.262 459.268 299.165 457.223 292.846 456.46C286.527 455.698 280.119 456.235 274.015 458.039C267.911 459.843 262.24 462.875 257.35 466.95L269.49 487.59L249.81 474.64C246.119 479.516 243.424 485.072 241.88 490.99C240.335 496.908 239.972 503.072 240.81 509.13C241.391 513.43 242.579 517.625 244.34 521.59C248.099 530.17 254.35 537.422 262.281 542.406C270.213 547.389 279.459 549.874 288.82 549.537C298.181 549.201 307.225 546.059 314.779 540.519C322.332 534.98 328.046 527.298 331.18 518.47C331.36 519.62 331.53 520.79 331.71 521.95C333.61 533.95 335.98 548.87 344.38 561.03C350.08 569.27 357.92 575.36 365.54 580.72C370.5 584.213 375.57 587.547 380.75 590.72C386.196 595.767 392.763 599.448 399.91 601.46C408.23 605.72 416.75 609.6 425.45 613.02L430.87 615.15C435.75 617.05 440.75 619 445.68 621.08C444.9 621.15 444.11 621.21 443.32 621.32C433.498 622.666 424.357 627.098 417.218 633.977C410.079 640.855 405.31 649.825 403.6 659.59L436.6 677.59L403.66 676.12C405.11 683.89 408.506 691.167 413.529 697.269C418.553 703.372 425.042 708.102 432.389 711.018C439.736 713.934 447.702 714.941 455.543 713.945C463.385 712.948 470.846 709.981 477.23 705.32C476.68 706.32 476.14 707.32 475.59 708.37C474.5 710.37 473.42 712.37 472.37 714.37C458.06 741.5 457.02 764.94 469.45 780.37L479.58 772.21C467.48 757.21 477.08 733.34 483.88 720.45C484.88 718.5 485.97 716.53 487.04 714.55C496.23 697.55 506.65 678.18 502.5 657.61C496.29 626.67 462.64 613.59 435.6 603.01Z" fill="#F2F2F2"/>
<path d="M720 815.18C1025.97 815.18 1274 804.659 1274 791.68C1274 778.701 1025.97 768.18 720 768.18C414.034 768.18 166 778.701 166 791.68C166 804.659 414.034 815.18 720 815.18Z" fill="#3F3D56"/>
<path opacity="0.1" d="M720 815.18C1025.97 815.18 1274 804.659 1274 791.68C1274 778.701 1025.97 768.18 720 768.18C414.034 768.18 166 778.701 166 791.68C166 804.659 414.034 815.18 720 815.18Z" fill="black"/>
<path d="M720 802.18C1025.97 802.18 1274 791.659 1274 778.68C1274 765.701 1025.97 755.18 720 755.18C414.034 755.18 166 765.701 166 778.68C166 791.659 414.034 802.18 720 802.18Z" fill="#3F3D56"/>
<path d="M251 770.32C248 764.81 251.4 758.06 255.28 753.14C259.16 748.22 263.89 743.14 263.79 736.85C263.65 727.85 254.09 722.54 246.46 717.77C240.799 714.227 235.576 710.028 230.9 705.26C228.946 703.422 227.328 701.256 226.12 698.86C224.54 695.34 224.59 691.34 224.69 687.48C225.023 674.64 225.657 661.813 226.59 649" stroke="#3F3D56" stroke-width="4" stroke-miterlimit="10"/>
<path d="M212.11 648.29C212.218 645.941 212.916 643.657 214.139 641.649C215.363 639.641 217.072 637.973 219.11 636.8L222.25 643.01L222.16 635.49C223.657 635.044 225.219 634.855 226.78 634.93C229.543 635.065 232.204 636.016 234.427 637.662C236.651 639.308 238.336 641.576 239.272 644.18C240.207 646.783 240.35 649.605 239.683 652.29C239.016 654.975 237.568 657.402 235.523 659.264C233.477 661.127 230.926 662.342 228.191 662.756C225.456 663.17 222.659 662.764 220.154 661.59C217.649 660.416 215.549 658.526 214.117 656.159C212.685 653.792 211.987 651.054 212.11 648.29V648.29Z" fill="#00B0FF"/>
<path d="M237.14 743.29C238.535 746.066 240.813 748.299 243.616 749.638C246.419 750.977 249.588 751.345 252.623 750.685C255.659 750.026 258.389 748.375 260.383 745.993C262.378 743.612 263.523 740.634 263.64 737.53C263.74 735.59 263.43 733.652 262.73 731.84C261.724 729.16 259.921 726.852 257.563 725.228C255.205 723.605 252.406 722.743 249.543 722.759C246.68 722.776 243.891 723.669 241.552 725.32C239.212 726.97 237.435 729.298 236.46 731.99L245.23 739.12L235.59 736.88C235.585 739.11 236.116 741.309 237.14 743.29V743.29Z" fill="#00B0FF"/>
<path d="M244.07 716.04C247.567 716.305 251.036 715.247 253.791 713.076C256.546 710.906 258.385 707.78 258.946 704.318C259.507 700.856 258.748 697.309 256.819 694.38C254.89 691.451 251.932 689.353 248.53 688.5L248.6 694.29L245.42 688C241.7 687.826 238.064 689.137 235.311 691.645C232.558 694.152 230.914 697.65 230.74 701.37C230.566 705.09 231.877 708.726 234.385 711.479C236.892 714.232 240.39 715.876 244.11 716.05L244.07 716.04Z" fill="#00B0FF"/>
<path d="M210 693.37C211.839 693.457 213.676 693.18 215.408 692.557C217.14 691.933 218.732 690.975 220.093 689.736C221.454 688.497 222.558 687.003 223.342 685.337C224.125 683.672 224.573 681.869 224.66 680.03C224.747 678.192 224.47 676.354 223.847 674.622C223.223 672.89 222.265 671.298 221.026 669.937C219.787 668.576 218.293 667.472 216.627 666.688C214.962 665.905 213.159 665.457 211.32 665.37C208.695 665.24 206.088 665.857 203.8 667.15L206.28 673.95L201.17 669.05C198.437 671.553 196.808 675.038 196.64 678.74C196.572 680.034 196.694 681.331 197 682.59C197.698 685.557 199.345 688.215 201.692 690.161C204.038 692.107 206.955 693.233 210 693.37V693.37Z" fill="#00B0FF"/>
<path opacity="0.1" d="M214 652.03C217.24 652.39 220.39 653.4 223.64 653.6C226.89 653.8 230.46 653.02 232.52 650.5C233.63 649.13 234.18 647.41 235.11 645.93C236.001 644.548 237.216 643.405 238.65 642.6C239.497 644.37 239.962 646.298 240.016 648.26C240.069 650.221 239.71 652.172 238.961 653.986C238.212 655.799 237.09 657.435 235.668 658.787C234.246 660.139 232.556 661.178 230.707 661.834C228.858 662.491 226.891 662.752 224.935 662.6C222.979 662.447 221.076 661.886 219.351 660.951C217.626 660.016 216.116 658.729 214.921 657.173C213.725 655.617 212.869 653.828 212.41 651.92C212.94 651.94 213.47 651.98 214 652.03Z" fill="black"/>
<path opacity="0.1" d="M210 693.37C212.421 693.493 214.831 692.985 216.997 691.897C219.162 690.808 221.008 689.176 222.354 687.161C223.699 685.145 224.498 682.814 224.673 680.397C224.848 677.98 224.392 675.558 223.35 673.37C222.236 674.122 221.278 675.083 220.53 676.2C219.53 677.71 218.92 679.45 217.75 680.84C215.56 683.41 211.83 684.25 208.44 684.09C205.05 683.93 201.78 682.98 198.44 682.67C197.97 682.67 197.5 682.59 197.03 682.58C197.725 685.544 199.367 688.201 201.707 690.148C204.048 692.095 206.959 693.226 210 693.37V693.37Z" fill="black"/>
<path opacity="0.1" d="M244.07 716.04C246.469 716.163 248.859 715.667 251.011 714.6C253.162 713.532 255.003 711.929 256.356 709.944C257.709 707.959 258.529 705.66 258.736 703.267C258.943 700.874 258.531 698.468 257.54 696.28C256.374 697.038 255.357 698.004 254.54 699.13C253.45 700.67 252.77 702.44 251.54 703.86C249.18 706.5 245.2 707.43 241.61 707.34C238.02 707.25 234.79 706.41 231.33 706.15C232.175 708.911 233.852 711.343 236.133 713.114C238.413 714.884 241.186 715.906 244.07 716.04V716.04Z" fill="black"/>
<path opacity="0.1" d="M237.14 743.29C238.535 746.066 240.813 748.299 243.616 749.638C246.419 750.977 249.588 751.345 252.623 750.685C255.659 750.026 258.389 748.375 260.383 745.993C262.378 743.612 263.523 740.634 263.64 737.53C263.74 735.59 263.43 733.652 262.73 731.84C261.574 732.596 260.536 733.52 259.65 734.58C258.31 736.21 257.44 738.05 255.89 739.58C253.02 742.4 248.39 743.58 244.27 743.67C241.888 743.68 239.507 743.553 237.14 743.29V743.29Z" fill="black"/>
<path d="M272.19 763.98C272.19 763.98 261.11 763.64 257.78 761.26C254.45 758.88 240.78 756.04 239.91 759.86C239.04 763.68 223.26 778.86 235.77 778.92C248.28 778.98 264.83 776.92 268.16 774.92C271.49 772.92 272.19 763.98 272.19 763.98Z" fill="#656380"/>
<path opacity="0.2" d="M235.54 777.59C248.05 777.69 264.6 775.59 267.94 773.59C270.47 772.05 271.48 766.5 271.82 763.94H272.19C272.19 763.94 271.49 772.87 268.19 774.94C264.89 777.01 248.3 779.02 235.8 778.94C232.19 778.94 230.94 777.63 231.01 775.72C231.48 776.85 232.86 777.59 235.54 777.59Z" fill="black"/>
<path d="M1221 779.32C1218 773.81 1221.4 767.06 1225.28 762.14C1229.16 757.22 1233.89 752.14 1233.79 745.85C1233.65 736.85 1224.09 731.54 1216.46 726.77C1210.8 723.227 1205.58 719.028 1200.9 714.26C1198.95 712.422 1197.33 710.256 1196.12 707.86C1194.54 704.34 1194.59 700.34 1194.69 696.48C1195.02 683.64 1195.65 670.813 1196.59 658" stroke="#3F3D56" stroke-width="4" stroke-miterlimit="10"/>
<path d="M1182.11 657.29C1182.22 654.941 1182.92 652.657 1184.14 650.649C1185.36 648.641 1187.07 646.973 1189.11 645.8L1192.25 652.01L1192.16 644.49C1193.66 644.044 1195.22 643.855 1196.78 643.93C1199.54 644.067 1202.2 645.019 1204.42 646.667C1206.65 648.314 1208.33 650.583 1209.26 653.186C1210.2 655.79 1210.34 658.611 1209.67 661.295C1209 663.979 1207.55 666.405 1205.51 668.267C1203.46 670.129 1200.91 671.343 1198.18 671.756C1195.44 672.169 1192.65 671.763 1190.14 670.588C1187.64 669.414 1185.54 667.524 1184.11 665.158C1182.68 662.791 1181.98 660.053 1182.1 657.29H1182.11Z" fill="#00B0FF"/>
<path d="M1207.14 752.29C1208.53 755.066 1210.81 757.299 1213.62 758.638C1216.42 759.977 1219.59 760.345 1222.62 759.685C1225.66 759.026 1228.39 757.375 1230.38 754.993C1232.38 752.612 1233.52 749.634 1233.64 746.53C1233.74 744.59 1233.43 742.652 1232.73 740.84C1231.72 738.16 1229.92 735.852 1227.56 734.228C1225.2 732.605 1222.41 731.743 1219.54 731.759C1216.68 731.776 1213.89 732.669 1211.55 734.32C1209.21 735.97 1207.44 738.298 1206.46 740.99L1215.23 748.12L1205.59 745.88C1205.58 748.11 1206.12 750.309 1207.14 752.29V752.29Z" fill="#00B0FF"/>
<path d="M1214.07 725.04C1217.57 725.305 1221.04 724.247 1223.79 722.076C1226.55 719.906 1228.39 716.78 1228.95 713.318C1229.51 709.856 1228.75 706.309 1226.82 703.38C1224.89 700.451 1221.93 698.353 1218.53 697.5L1218.6 703.29L1215.42 697C1211.7 696.826 1208.06 698.137 1205.31 700.645C1202.56 703.152 1200.91 706.65 1200.74 710.37C1200.57 714.09 1201.88 717.726 1204.38 720.479C1206.89 723.232 1210.39 724.876 1214.11 725.05L1214.07 725.04Z" fill="#00B0FF"/>
<path d="M1180 702.37C1183.71 702.545 1187.34 701.238 1190.09 698.736C1192.84 696.234 1194.49 692.743 1194.66 689.03C1194.84 685.317 1193.53 681.686 1191.03 678.937C1188.52 676.188 1185.03 674.545 1181.32 674.37C1178.7 674.24 1176.09 674.857 1173.8 676.15L1176.28 682.95L1171.17 678.05C1168.44 680.553 1166.81 684.038 1166.64 687.74C1166.57 689.034 1166.69 690.331 1167 691.59C1167.7 694.557 1169.35 697.215 1171.69 699.161C1174.04 701.107 1176.96 702.233 1180 702.37V702.37Z" fill="#00B0FF"/>
<path opacity="0.1" d="M1184 661.03C1187.24 661.39 1190.39 662.4 1193.64 662.6C1196.89 662.8 1200.46 662.02 1202.52 659.5C1203.63 658.13 1204.18 656.41 1205.11 654.93C1206 653.548 1207.22 652.405 1208.65 651.6C1209.5 653.37 1209.96 655.298 1210.02 657.26C1210.07 659.221 1209.71 661.172 1208.96 662.986C1208.21 664.799 1207.09 666.435 1205.67 667.787C1204.25 669.139 1202.56 670.178 1200.71 670.834C1198.86 671.491 1196.89 671.752 1194.93 671.6C1192.98 671.447 1191.08 670.886 1189.35 669.951C1187.63 669.016 1186.12 667.729 1184.92 666.173C1183.72 664.617 1182.87 662.828 1182.41 660.92C1182.94 660.94 1183.47 660.98 1184 661.03Z" fill="black"/>
<path opacity="0.1" d="M1180 702.37C1182.42 702.493 1184.83 701.985 1187 700.897C1189.16 699.808 1191.01 698.176 1192.35 696.161C1193.7 694.145 1194.5 691.814 1194.67 689.397C1194.85 686.98 1194.39 684.558 1193.35 682.37C1192.24 683.122 1191.28 684.083 1190.53 685.2C1189.53 686.71 1188.92 688.45 1187.75 689.84C1185.56 692.41 1181.83 693.25 1178.44 693.09C1175.05 692.93 1171.78 691.98 1168.44 691.67C1167.97 691.67 1167.5 691.59 1167.03 691.58C1167.72 694.544 1169.37 697.201 1171.71 699.148C1174.05 701.095 1176.96 702.226 1180 702.37V702.37Z" fill="black"/>
<path opacity="0.1" d="M1214.07 725.04C1216.47 725.163 1218.86 724.667 1221.01 723.6C1223.16 722.532 1225 720.929 1226.36 718.944C1227.71 716.959 1228.53 714.66 1228.74 712.267C1228.94 709.874 1228.53 707.468 1227.54 705.28C1226.37 706.038 1225.36 707.004 1224.54 708.13C1223.45 709.67 1222.77 711.44 1221.54 712.86C1219.18 715.5 1215.2 716.43 1211.61 716.34C1208.02 716.25 1204.79 715.41 1201.33 715.15C1202.17 717.911 1203.85 720.343 1206.13 722.114C1208.41 723.884 1211.19 724.906 1214.07 725.04V725.04Z" fill="black"/>
<path opacity="0.1" d="M1207.14 752.29C1208.53 755.066 1210.81 757.299 1213.62 758.638C1216.42 759.977 1219.59 760.345 1222.62 759.685C1225.66 759.026 1228.39 757.375 1230.38 754.993C1232.38 752.612 1233.52 749.634 1233.64 746.53C1233.74 744.59 1233.43 742.652 1232.73 740.84C1231.57 741.596 1230.54 742.52 1229.65 743.58C1228.31 745.21 1227.44 747.05 1225.89 748.58C1223.02 751.4 1218.39 752.58 1214.27 752.67C1211.89 752.68 1209.51 752.553 1207.14 752.29V752.29Z" fill="black"/>
<path d="M1242.19 772.98C1242.19 772.98 1231.11 772.64 1227.78 770.26C1224.45 767.88 1210.78 765.04 1209.91 768.86C1209.04 772.68 1193.26 787.86 1205.77 787.92C1218.28 787.98 1234.83 785.92 1238.16 783.92C1241.49 781.92 1242.19 772.98 1242.19 772.98Z" fill="#656380"/>
<path opacity="0.2" d="M1205.54 786.59C1218.05 786.69 1234.6 784.59 1237.94 782.59C1240.47 781.05 1241.48 775.5 1241.82 772.94H1242.19C1242.19 772.94 1241.49 781.87 1238.19 783.94C1234.89 786.01 1218.3 788.02 1205.8 787.94C1202.19 787.94 1200.94 786.63 1201.01 784.72C1201.48 785.85 1202.86 786.59 1205.54 786.59Z" fill="black"/>
<path d="M911.57 415.15C904.957 412.883 898.29 410.783 891.57 408.85C892.677 404.323 893.707 399.773 894.66 395.2C909.8 321.69 899.9 262.47 866.09 242.98C833.67 224.28 780.65 243.78 727.09 290.37C721.81 294.983 716.653 299.717 711.62 304.57C708.24 301.337 704.807 298.167 701.32 295.06C645.21 245.23 589 224.24 555.18 243.79C522.79 262.54 513.18 318.21 526.83 387.88C528.163 394.78 529.693 401.64 531.42 408.46C523.47 410.72 515.78 413.13 508.42 415.7C442.63 438.59 400.61 474.59 400.61 511.88C400.61 550.39 445.72 589.02 514.25 612.44C519.81 614.327 525.41 616.08 531.05 617.7C529.223 625.033 527.597 632.427 526.17 639.88C513.17 708.34 523.33 762.7 555.63 781.33C589 800.59 645 780.79 699.52 733.13C703.83 729.36 708.15 725.36 712.52 721.18C717.973 726.44 723.57 731.547 729.31 736.5C782.13 781.95 834.31 800.31 866.57 781.62C899.9 762.33 910.73 703.93 896.67 632.89C895.603 627.463 894.36 621.927 892.94 616.28C896.88 615.12 900.733 613.917 904.5 612.67C975.74 589.07 1022.1 550.91 1022.1 511.88C1022.1 474.45 978.72 438.26 911.6 415.15H911.57Z" fill="#53C1DE"/>
<path d="M896.12 587.47C892.72 588.6 889.24 589.68 885.68 590.74C876.994 563.811 866.48 537.506 854.21 512.01C866.012 486.853 876.118 460.936 884.46 434.43C890.81 436.27 896.99 438.21 902.93 440.26C960.44 460.05 995.52 489.32 995.52 511.88C995.52 535.88 957.63 567.09 896.12 587.47ZM870.6 638.05C876.82 669.46 877.7 697.86 873.6 720.05C869.9 740 862.46 753.3 853.26 758.63C833.67 769.96 791.79 755.23 746.62 716.36C741.44 711.9 736.23 707.15 730.99 702.11C749.822 681.261 767.225 659.164 783.08 635.97C811.401 633.57 839.524 629.227 867.25 622.97C868.517 628.09 869.64 633.09 870.62 637.97L870.6 638.05ZM612.48 756.69C593.34 763.45 578.1 763.64 568.89 758.33C549.29 747.02 541.14 703.33 552.26 644.83C553.593 637.917 555.103 631.04 556.79 624.2C584.401 630.128 612.382 634.181 640.54 636.33C656.859 659.443 674.681 681.457 693.89 702.23C690.03 705.97 686.083 709.607 682.05 713.14C657.94 734.22 633.77 749.14 612.48 756.69V756.69ZM522.84 587.32C492.53 576.96 467.51 563.5 450.35 548.82C434.94 535.62 427.16 522.51 427.16 511.88C427.16 489.25 460.9 460.38 517.16 440.77C524.227 438.31 531.357 436.067 538.55 434.04C546.907 460.839 557.025 487.056 568.84 512.52C556.878 538.349 546.636 564.94 538.18 592.12C533.02 590.647 527.907 589.047 522.84 587.32ZM552.89 382.78C541.21 323.09 548.96 278.06 568.48 266.78C589.27 254.78 635.24 271.9 683.7 314.93C686.8 317.68 689.91 320.56 693.02 323.53C673.948 344.176 656.266 366.064 640.09 389.05C612.197 391.551 584.496 395.857 557.16 401.94C555.567 395.593 554.143 389.21 552.89 382.79V382.78ZM821 448.97C814.927 438.477 808.63 428.117 802.11 417.89C821.94 420.4 840.93 423.72 858.77 427.8C853.045 445.96 846.407 463.82 838.88 481.31C833.14 470.41 827.18 459.63 821 448.97ZM711.64 342.5C724.563 356.59 736.769 371.322 748.21 386.64C723.737 385.487 699.253 385.487 674.76 386.64C686.83 370.72 699.2 355.92 711.64 342.51V342.5ZM601.64 449.15C595.54 459.73 589.69 470.443 584.09 481.29C576.36 462.96 569.75 444.93 564.35 427.52C582.08 423.52 600.99 420.31 620.69 417.84C614.077 428.133 607.72 438.57 601.62 449.15H601.64ZM621.25 607.8C602.022 605.713 582.913 602.639 564 598.59C569.49 580.88 576.25 562.46 584.15 543.73C589.77 554.59 595.64 565.31 601.76 575.89C607.987 586.683 614.477 597.32 621.23 607.8H621.25ZM712.39 683.13C699.79 669.59 687.24 654.59 675 638.38C686.9 638.853 699.02 639.09 711.36 639.09C724.027 639.09 736.53 638.81 748.87 638.25C737.479 653.825 725.296 668.804 712.37 683.13H712.39ZM839.08 542.78C846.997 560.625 853.979 578.869 860 597.44C840.853 601.748 821.493 605.049 802 607.33C808.567 596.91 814.927 586.367 821.08 575.7C827.333 564.86 833.333 553.887 839.08 542.78ZM798.08 562.44C788.667 578.787 778.73 594.82 768.27 610.54C749.83 611.86 730.78 612.54 711.36 612.54C691.94 612.54 673.21 611.94 655.09 610.76C644.363 595.093 634.233 579.037 624.7 562.59C615.167 546.143 606.33 529.45 598.19 512.51C606.37 495.49 615.18 478.79 624.62 462.41C634.047 446.037 644.09 430.037 654.75 414.41C673.24 413.01 692.18 412.28 711.34 412.28C730.5 412.28 749.56 413.02 768.03 414.42C778.57 430 788.57 445.937 798.03 462.23C807.49 478.523 816.42 495.147 824.82 512.1C816.52 529.18 807.617 545.947 798.11 562.4L798.08 562.44ZM852.85 265.98C873.66 277.98 881.75 326.38 868.68 389.85C867.82 393.977 866.887 398.093 865.88 402.2C838.504 395.994 810.746 391.607 782.79 389.07C766.77 366.064 749.22 344.161 730.26 323.51C734.927 319.017 739.69 314.647 744.55 310.4C790.43 270.47 833.31 254.71 852.85 265.98Z" fill="white"/>
<path d="M711.34 456.38C722.317 456.38 733.047 459.635 742.174 465.733C751.301 471.832 758.415 480.5 762.615 490.641C766.816 500.782 767.915 511.942 765.774 522.707C763.632 533.473 758.346 543.363 750.584 551.124C742.823 558.886 732.933 564.172 722.168 566.314C711.402 568.455 700.242 567.356 690.101 563.155C679.96 558.955 671.292 551.841 665.193 542.714C659.095 533.587 655.84 522.857 655.84 511.88C655.839 504.591 657.273 497.374 660.062 490.64C662.851 483.905 666.939 477.787 672.093 472.633C677.247 467.479 683.365 463.391 690.099 460.602C696.834 457.813 704.051 456.379 711.34 456.38" fill="#53C1DE"/>
<path d="M725.26 104.4C725.26 107.683 724.286 110.893 722.462 113.622C720.638 116.352 718.046 118.48 715.013 119.736C711.979 120.993 708.642 121.322 705.422 120.681C702.201 120.041 699.244 118.46 696.922 116.138C694.6 113.816 693.019 110.859 692.379 107.639C691.738 104.418 692.067 101.081 693.324 98.0475C694.58 95.0142 696.708 92.4216 699.438 90.5976C702.167 88.7736 705.377 87.8 708.66 87.8C710.843 87.7894 713.006 88.2115 715.025 89.042C717.044 89.8725 718.878 91.0948 720.422 92.6384C721.965 94.182 723.188 96.0161 724.018 98.0349C724.848 100.054 725.271 102.217 725.26 104.4V104.4Z" fill="#3F3D56"/>
<path d="M695.4 108.59C694.084 106.212 693.371 103.548 693.324 100.831C693.277 98.1134 693.897 95.4261 695.13 93.0041C696.363 90.5821 698.171 88.4994 700.395 86.9383C702.62 85.3773 705.193 84.3855 707.89 84.05C705.603 83.9699 703.324 84.3635 701.197 85.2062C699.069 86.0488 697.138 87.3223 695.526 88.9466C693.914 90.5709 692.656 92.5109 691.829 94.6449C691.003 96.7788 690.627 99.0606 690.724 101.347C690.822 103.633 691.391 105.875 692.396 107.931C693.401 109.987 694.82 111.812 696.565 113.294C698.309 114.775 700.341 115.879 702.532 116.538C704.724 117.196 707.028 117.394 709.3 117.12C706.445 117.015 703.665 116.174 701.23 114.68C698.795 113.185 696.787 111.088 695.4 108.59V108.59Z" fill="#3F3D56"/>
<path d="M732.38 127.52H687.91V196.89H732.38V127.52Z" fill="#3F3D56"/>
<path opacity="0.1" d="M732.38 127.52H687.91V196.89H732.38V127.52Z" fill="black"/>
<path d="M617.66 379.2C617.66 379.2 612.91 392.25 601.66 394.03C590.41 395.81 583.87 398.77 583.87 398.77L610.55 415.96L624.78 414.18C624.78 414.18 626.56 395.8 632.49 391.65C638.42 387.5 617.66 379.2 617.66 379.2Z" fill="#A0616A"/>
<path d="M810.34 379.2C810.34 379.2 815.09 392.25 826.34 394.03C837.59 395.81 844.13 398.77 844.13 398.77L817.45 415.96L803.22 414.18C803.22 414.18 801.44 395.8 795.51 391.65C789.58 387.5 810.34 379.2 810.34 379.2Z" fill="#A0616A"/>
<path d="M680.5 264.18C680.5 264.18 673.39 267.74 671.02 274.86C671.02 274.86 658.02 279.01 650.86 290.27C650.86 290.27 641.96 299.76 640.78 304.5C639.6 309.24 626 337.7 626 337.7C626 337.7 612.36 382.17 605.25 386.91C605.25 386.91 627.78 382.17 631.93 404.7C631.93 404.7 637.26 404.7 643.19 383.95C649.12 363.2 663.35 337.7 663.35 337.7C663.35 337.7 668.09 319.92 672.24 316.95C676.39 313.98 682.91 300.35 688.84 303.95C694.77 307.55 733.9 303.35 733.9 303.35C733.9 303.35 757 313.99 757.58 321.1C758.16 328.21 762.32 328.81 762.91 334.74C763.5 340.67 785.44 387.5 785.44 387.5C785.44 387.5 789.59 400.5 790.78 403.5C790.78 403.5 803.78 372.08 821.02 389.87C821.02 389.87 820.42 378.01 815.09 370.87C809.76 363.73 786.63 308.03 786.63 308.03C786.63 308.03 784.26 299.73 781.89 297.36C779.52 294.99 761.13 276.01 754.61 276.01C754.61 276.01 751.06 267.12 746.91 265.93L680.5 264.18Z" fill="#3F3D56"/>
<path d="M627.14 410.03C622.509 411.889 617.476 412.517 612.531 411.853C607.585 411.189 602.896 409.255 598.92 406.24C595.056 403.273 590.824 400.819 586.33 398.94C580.04 396.4 572.52 394.52 570.23 398.77C566.08 406.48 620.62 425.45 620.62 425.45C620.62 425.45 627.74 421.3 627.14 410.03Z" fill="#3F3D56"/>
<path d="M800.86 410.03C805.491 411.889 810.524 412.517 815.469 411.853C820.415 411.189 825.104 409.255 829.08 406.24C832.944 403.273 837.176 400.819 841.67 398.94C847.96 396.4 855.48 394.52 857.77 398.77C861.92 406.48 807.38 425.45 807.38 425.45C807.38 425.45 800.26 421.3 800.86 410.03Z" fill="#3F3D56"/>
<path d="M699.88 166.67C699.66 168.73 698.98 170.96 697.22 172.05C695.78 172.95 693.96 172.88 692.3 173.22C690.557 173.656 688.941 174.497 687.583 175.673C686.224 176.849 685.162 178.328 684.48 179.99C683.148 183.345 682.887 187.03 683.73 190.54C684.122 192.259 684.63 193.949 685.25 195.6C686.99 200.52 689.09 205.4 692.34 209.49C695.113 212.742 698.232 215.682 701.64 218.26C703.75 219.98 705.93 221.73 708.53 222.54C710.293 223.005 712.107 223.247 713.93 223.26C716.18 223.36 718.58 223.43 720.53 222.31C723.53 220.58 724.42 216.76 726.05 213.69C727.43 211.09 729.49 208.88 730.78 206.23C731.697 204.141 732.368 201.953 732.78 199.71L735.55 187.41C736.55 182.94 737.47 177.9 734.96 174.07C734.778 173.758 734.524 173.494 734.22 173.3C733.737 173.11 733.211 173.058 732.7 173.15C729.512 173.357 726.332 172.631 723.55 171.06C723.114 170.834 722.724 170.529 722.4 170.16C722.001 169.52 721.76 168.792 721.7 168.04C721.43 166.516 721.001 165.025 720.42 163.59C720.256 163.073 719.956 162.61 719.55 162.25C719.124 161.983 718.641 161.822 718.14 161.78C713.859 161.085 709.542 160.635 705.21 160.43C703.79 160.36 701.65 159.79 700.67 161.05C699.69 162.31 700 165.17 699.88 166.67Z" fill="#A0616A"/>
<path opacity="0.1" d="M699.88 166.67C699.66 168.73 698.98 170.96 697.22 172.05C695.78 172.95 693.96 172.88 692.3 173.22C690.557 173.656 688.941 174.497 687.583 175.673C686.224 176.849 685.162 178.328 684.48 179.99C683.148 183.345 682.887 187.03 683.73 190.54C684.122 192.259 684.63 193.949 685.25 195.6C686.99 200.52 689.09 205.4 692.34 209.49C695.113 212.742 698.232 215.682 701.64 218.26C703.75 219.98 705.93 221.73 708.53 222.54C710.293 223.005 712.107 223.247 713.93 223.26C716.18 223.36 718.58 223.43 720.53 222.31C723.53 220.58 724.42 216.76 726.05 213.69C727.43 211.09 729.49 208.88 730.78 206.23C731.697 204.141 732.368 201.953 732.78 199.71L735.55 187.41C736.55 182.94 737.47 177.9 734.96 174.07C734.778 173.758 734.524 173.494 734.22 173.3C733.737 173.11 733.211 173.058 732.7 173.15C729.512 173.357 726.332 172.631 723.55 171.06C723.114 170.834 722.724 170.529 722.4 170.16C722.001 169.52 721.76 168.792 721.7 168.04C721.43 166.516 721.001 165.025 720.42 163.59C720.256 163.073 719.956 162.61 719.55 162.25C719.124 161.983 718.641 161.822 718.14 161.78C713.859 161.085 709.542 160.635 705.21 160.43C703.79 160.36 701.65 159.79 700.67 161.05C699.69 162.31 700 165.17 699.88 166.67Z" fill="black"/>
<path d="M691.85 173.74C689.534 173.048 687.136 172.672 684.72 172.62C679 172.48 672.88 174.45 669.58 179.12C667.332 182.491 666.509 186.614 667.29 190.59C668.086 194.528 669.876 198.198 672.49 201.25C674 202.854 675.341 204.61 676.49 206.49C678.07 209.49 678.12 213.08 678.55 216.49C679.55 224.61 683.01 232.24 684.38 240.31C685.75 248.38 684.57 257.73 678.2 262.86C677.13 263.72 675.83 264.63 675.74 266C675.6 268.19 678.45 269.12 680.64 269.33C687.19 269.95 693.91 270.56 700.27 268.87C702.9 268.17 705.44 267.08 708.12 266.58C714.92 265.31 721.76 267.92 728.57 269.17C733.498 269.984 738.485 270.388 743.48 270.38C744.643 270.484 745.814 270.33 746.91 269.93C747.453 269.717 747.915 269.337 748.227 268.844C748.54 268.352 748.688 267.772 748.65 267.19C748.428 266.436 748.022 265.749 747.47 265.19C744.03 260.94 742.98 255.29 742.04 249.9L738.89 231.79C737.2 222.11 735.63 211.59 740.21 202.9C743.5 196.65 749.57 192.25 753.04 186.1C754.25 184.241 754.796 182.028 754.59 179.82C754.07 176.73 751.28 174.52 748.42 173.23C742.917 170.761 736.669 170.532 731 172.59C731.1 176.92 730 181.3 729.29 185.59L728.08 192.59C727.464 196.715 726.559 200.792 725.37 204.79C724.938 206.389 724.202 207.89 723.2 209.21C722.132 210.397 720.828 211.348 719.37 212C716.214 213.543 712.743 214.337 709.23 214.32C707.708 214.343 706.194 214.11 704.75 213.63C702.424 212.61 700.326 211.135 698.58 209.29C697.968 208.767 697.421 208.173 696.95 207.52C696.452 206.689 696.078 205.789 695.84 204.85C695.03 202.404 694.392 199.905 693.93 197.37C693.63 195.43 693.53 193.46 693.39 191.5C693 185.71 693 179.31 691.85 173.74Z" fill="#00B0FF"/>
<path d="M685.84 288.49C685.84 288.49 683.47 319.92 698.29 325.25C713.11 330.58 700.07 299.16 700.07 299.16L695.32 289.68L685.84 288.49Z" fill="#A0616A"/>
<path d="M736.23 288.49C736.23 288.49 738.6 319.92 723.78 325.25C708.96 330.58 722 299.16 722 299.16L726.75 289.68L736.23 288.49Z" fill="#A0616A"/>
<path opacity="0.1" d="M672.79 183.59L668.05 191.3C668.05 191.3 672.2 217.98 672.79 222.72C673.302 226.14 674.098 229.512 675.17 232.8C675.17 232.8 675.76 247.03 675.76 252.37C675.76 257.71 678.76 266.6 678.76 266.6C679.178 271.64 680.185 276.614 681.76 281.42C684.13 287.94 686.5 295.65 686.5 295.65C686.5 295.65 689.5 287.35 701.32 299.8C702.644 298.457 703.386 296.646 703.386 294.76C703.386 292.874 702.644 291.063 701.32 289.72C701.32 289.72 697.77 273.72 697.77 265.41C697.77 257.1 691.24 217.41 691.24 217.41C691.24 217.41 687 172.29 672.79 183.59Z" fill="black"/>
<path d="M671.61 182.96L666.87 190.67C666.87 190.67 671.02 217.35 671.61 222.09C672.123 225.511 672.923 228.883 674 232.17C674 232.17 674.59 246.4 674.59 251.73C674.59 257.06 677.59 265.96 677.59 265.96C678.006 271 679.013 275.975 680.59 280.78C682.96 287.31 685.34 295.01 685.34 295.01C685.34 295.01 688.34 286.71 700.16 299.16C701.481 297.817 702.221 296.009 702.221 294.125C702.221 292.241 701.481 290.433 700.16 289.09C700.16 289.09 696.6 273.09 696.6 264.78C696.6 256.47 690.08 216.78 690.08 216.78C690.08 216.78 685.84 171.69 671.61 182.96Z" fill="#00B0FF"/>
<path opacity="0.1" d="M749.87 178.81L752.87 182.34C752.87 182.34 756.36 202.52 748.65 228.02L746.28 251.14C746.28 251.14 742.13 270.71 741.54 275.45C740.95 280.19 740.95 280.78 739.76 282.56C739.399 282.976 739.2 283.509 739.2 284.06C739.2 284.611 739.399 285.144 739.76 285.56L736.2 298.56C736.2 298.56 730.87 292.04 720.2 300.34C720.2 300.34 717.2 295.6 719.6 291.45C722 287.3 721.97 285.52 721.38 284.33C720.79 283.14 723.75 277.22 723.75 276.03C723.75 274.84 727.93 247.59 727.93 247.59C727.93 247.59 729.71 220.91 731.49 212.02C732.58 206.55 732.56 194.36 732.37 185.78C732.18 176.84 743 172 749.37 178.28C749.52 178.44 749.7 178.59 749.87 178.81Z" fill="black"/>
<path d="M751.65 177.59L754.65 181.12C754.65 181.12 758.14 201.31 750.43 226.8L748.06 249.92C748.06 249.92 743.91 269.49 743.32 274.23C742.73 278.97 742.72 279.57 741.54 281.35C741.177 281.765 740.977 282.298 740.977 282.85C740.977 283.402 741.177 283.935 741.54 284.35L738 297.39C738 297.39 732.67 290.86 722 299.16C722 299.16 719 294.42 721.41 290.27C723.82 286.12 723.78 284.34 723.19 283.16C722.6 281.98 725.56 276.04 725.56 274.86C725.56 273.68 729.71 246.4 729.71 246.4C729.71 246.4 731.49 219.72 733.27 210.82C735.05 201.92 733.86 175.25 733.86 175.25C733.86 175.25 743.35 168.73 751.65 177.59Z" fill="#00B0FF"/>
<path d="M711.92 169.33C725.02 169.33 735.64 158.71 735.64 145.61C735.64 132.51 725.02 121.89 711.92 121.89C698.82 121.89 688.2 132.51 688.2 145.61C688.2 158.71 698.82 169.33 711.92 169.33Z" fill="#A0616A"/>
<path opacity="0.1" d="M724.29 110C723.15 113.183 721.065 115.941 718.314 117.907C715.563 119.873 712.278 120.952 708.898 121C705.517 121.047 702.203 120.062 699.397 118.175C696.592 116.288 694.43 113.589 693.2 110.44C702.46 106.71 711.92 110.03 711.92 110.03C716.65 108.37 720.75 108.52 724.29 110Z" fill="black"/>
<path d="M711.92 111.22C711.92 111.22 666.27 95.22 677.54 172.88C677.54 172.88 687.62 179.4 695.32 175.25C695.32 175.25 689.99 121.3 710.74 123.67C731.49 126.04 727.93 174.07 727.93 174.07C727.93 174.07 739.79 177.62 743.35 171.07C746.91 164.52 742.16 100.59 711.92 111.22Z" fill="#3F3D56"/>
<path opacity="0.1" d="M710.74 120.11C696.5 118.49 694.54 143.38 694.74 159.16C694.91 143.47 697.55 122.16 710.74 123.67C725.55 125.36 727.98 150.33 728.15 164.47C728.32 151.49 726.9 121.96 710.74 120.11Z" fill="black"/>
<path opacity="0.1" d="M677.54 169.32C676.508 162.522 675.917 155.664 675.77 148.79C675.721 156.854 676.312 164.91 677.54 172.88C677.54 172.88 687.62 179.4 695.32 175.25C695.32 175.25 695.2 173.97 695.06 171.82C687.39 175.69 677.54 169.32 677.54 169.32Z" fill="black"/>
<path opacity="0.1" d="M743.35 167.59C740.03 173.67 729.52 171 728.1 170.59C728.03 172.79 727.93 174.11 727.93 174.11C727.93 174.11 739.79 177.66 743.35 171.11C744.08 169.77 744.46 165.98 744.35 160.91C744.25 164.16 743.9 166.59 743.35 167.59Z" fill="black"/>
<path d="M992.73 756.96C997.47 748.18 992.09 737.42 985.91 729.59C979.73 721.76 972.18 713.59 972.34 703.59C972.57 689.24 987.79 680.78 999.96 673.17C1008.98 667.529 1017.3 660.839 1024.75 653.24C1027.75 650.19 1030.62 646.93 1032.37 643.03C1034.89 637.43 1034.82 631.03 1034.66 624.91C1034.13 604.437 1033.13 583.99 1031.66 563.57" stroke="#3F3D56" stroke-width="4" stroke-miterlimit="10"/>
<path d="M1054.74 562.49C1054.57 558.745 1053.46 555.103 1051.51 551.901C1049.56 548.699 1046.83 546.04 1043.58 544.17L1038.58 554.07L1038.73 542.07C1034.18 540.724 1029.32 540.859 1024.86 542.456C1020.39 544.052 1016.55 547.026 1013.88 550.95C1011.22 554.873 1009.87 559.542 1010.03 564.282C1010.19 569.023 1011.85 573.589 1014.78 577.322C1017.71 581.055 1021.74 583.761 1026.31 585.05C1030.87 586.338 1035.73 586.143 1040.17 584.491C1044.62 582.839 1048.43 579.816 1051.04 575.86C1053.66 571.904 1054.95 567.218 1054.73 562.48L1054.74 562.49Z" fill="#00B0FF"/>
<path d="M1014.86 713.88C1012.51 718.442 1008.67 722.059 1003.97 724.124C999.277 726.188 994.014 726.575 989.066 725.22C984.118 723.864 979.787 720.848 976.799 716.678C973.811 712.507 972.348 707.436 972.655 702.315C972.963 697.194 975.021 692.335 978.487 688.552C981.952 684.769 986.612 682.292 991.687 681.538C996.761 680.783 1001.94 681.797 1006.36 684.408C1010.77 687.019 1014.16 691.07 1015.94 695.88L1001.94 707.25L1017.31 703.68C1017.32 707.227 1016.48 710.724 1014.86 713.88V713.88Z" fill="#00B0FF"/>
<path d="M1003.81 670.45C998.338 670.682 992.97 668.898 988.726 665.437C984.481 661.975 981.654 657.077 980.779 651.67C979.905 646.263 981.045 640.723 983.984 636.101C986.922 631.478 991.453 628.094 996.72 626.59L996.6 635.81L1001.66 625.81H1001.72C1004.67 625.651 1007.62 626.077 1010.4 627.062C1013.18 628.048 1015.74 629.575 1017.93 631.554C1020.12 633.533 1021.89 635.926 1023.15 638.594C1024.41 641.263 1025.13 644.154 1025.27 647.102C1025.41 650.05 1024.96 652.997 1023.96 655.771C1022.95 658.546 1021.41 661.094 1019.41 663.269C1017.42 665.443 1015.01 667.202 1012.33 668.443C1009.66 669.684 1006.76 670.383 1003.81 670.5V670.45Z" fill="#00B0FF"/>
<path d="M1058.11 634.32C1054.65 634.482 1051.2 633.838 1048.03 632.44C1044.86 631.042 1042.06 628.927 1039.85 626.262C1037.64 623.597 1036.08 620.455 1035.28 617.083C1034.49 613.711 1034.5 610.201 1035.29 606.831C1036.09 603.46 1037.66 600.321 1039.87 597.659C1042.09 594.998 1044.89 592.887 1048.07 591.494C1051.24 590.101 1054.69 589.463 1058.15 589.631C1061.61 589.798 1064.98 590.767 1068 592.46L1064 603.29L1072.13 595.49C1075.38 598.476 1077.68 602.358 1078.73 606.648C1079.79 610.938 1079.54 615.443 1078.04 619.596C1076.54 623.748 1073.83 627.363 1070.28 629.983C1066.72 632.603 1062.47 634.112 1058.06 634.32H1058.11Z" fill="#00B0FF"/>
<path opacity="0.1" d="M1051.74 568.45C1046.57 569.02 1041.55 570.63 1036.37 570.95C1031.19 571.27 1025.5 570.03 1022.23 565.95C1020.46 563.78 1019.58 561.04 1018.09 558.67C1016.67 556.47 1014.74 554.65 1012.46 553.37C1011.02 556.206 1010.2 559.317 1010.05 562.495C1009.91 565.673 1010.44 568.846 1011.62 571.801C1012.8 574.756 1014.6 577.426 1016.89 579.632C1019.18 581.837 1021.92 583.529 1024.92 584.593C1027.91 585.657 1031.11 586.07 1034.28 585.803C1037.45 585.536 1040.52 584.596 1043.3 583.045C1046.08 581.495 1048.49 579.369 1050.39 576.811C1052.28 574.253 1053.6 571.321 1054.27 568.21C1053.42 568.3 1052.58 568.36 1051.74 568.45Z" fill="black"/>
<path opacity="0.1" d="M1058.11 634.32C1054.25 634.497 1050.42 633.674 1046.98 631.932C1043.53 630.19 1040.6 627.587 1038.46 624.376C1036.32 621.165 1035.04 617.456 1034.76 613.607C1034.47 609.758 1035.19 605.901 1036.83 602.41C1038.61 603.604 1040.14 605.137 1041.33 606.92C1042.92 609.32 1043.89 612.1 1045.76 614.31C1049.24 618.4 1055.2 619.74 1060.6 619.5C1066 619.26 1071.2 617.72 1076.6 617.22C1077.35 617.16 1078.1 617.11 1078.86 617.09C1077.75 621.828 1075.12 626.074 1071.37 629.184C1067.63 632.293 1062.97 634.097 1058.11 634.32Z" fill="black"/>
<path opacity="0.1" d="M1003.81 670.45C999.993 670.628 996.194 669.826 992.775 668.12C989.357 666.413 986.432 663.86 984.28 660.702C982.128 657.545 980.821 653.889 980.483 650.082C980.145 646.276 980.788 642.447 982.35 638.96C984.195 640.171 985.798 641.714 987.08 643.51C988.82 645.96 989.9 648.78 991.94 651.05C995.71 655.25 1002.05 656.73 1007.77 656.59C1013.31 656.47 1018.64 655.11 1024.15 654.69C1022.8 659.092 1020.11 662.968 1016.47 665.789C1012.83 668.61 1008.41 670.238 1003.81 670.45V670.45Z" fill="black"/>
<path opacity="0.1" d="M1014.86 713.88C1012.27 719.02 1007.79 722.963 1002.37 724.889C996.943 726.814 990.984 726.574 985.732 724.218C980.479 721.863 976.337 717.572 974.166 712.24C971.996 706.908 971.965 700.944 974.08 695.59C975.925 696.799 977.579 698.275 978.99 699.97C981.12 702.56 982.52 705.5 984.99 707.91C989.56 712.4 996.94 714.25 1003.51 714.42C1007.3 714.462 1011.09 714.281 1014.86 713.88V713.88Z" fill="black"/>
<path d="M959 746.85C959 746.85 976.65 746.31 982 742.52C987.35 738.73 1009.16 734.21 1010.48 740.28C1011.8 746.35 1037.01 770.5 1017.08 770.66C997.15 770.82 970.77 767.56 965.46 764.32C960.15 761.08 959 746.85 959 746.85Z" fill="#656380"/>
<path opacity="0.2" d="M1017.4 768.59C997.47 768.75 971.09 765.48 965.78 762.25C961.78 759.78 960.13 750.95 959.59 746.87H959C959 746.87 960.12 761.11 965.43 764.34C970.74 767.57 997.12 770.84 1017.05 770.68C1022.8 770.68 1024.79 768.59 1024.68 765.56C1023.88 767.37 1021.69 768.51 1017.4 768.59Z" fill="black"/>
<path d="M489 126.86L470.75 138.43L481.83 118.28C478.703 115.78 474.833 114.394 470.83 114.34H470.53C469.264 114.358 467.999 114.264 466.75 114.06L460.56 117.98L463.21 113.16C458.83 111.629 455.043 108.756 452.39 104.95L441.32 111.95L448.32 99.23C441.84 91.46 433.12 86.69 423.51 86.69C412 86.69 401.75 93.54 395.13 104.21C393.172 107.4 390.406 110.017 387.111 111.794C383.817 113.571 380.111 114.446 376.37 114.33H375.75C363.04 114.33 352.75 128.74 352.75 146.52C352.75 164.3 363.05 178.7 375.75 178.7C378.539 178.692 381.285 178.006 383.75 176.7C392.04 172.39 402.92 172.31 411.6 176.16C415.321 177.834 419.354 178.703 423.435 178.712C427.515 178.721 431.552 177.868 435.28 176.21C443.9 172.44 454.65 172.52 462.89 176.75C465.335 178.043 468.054 178.729 470.82 178.75C483.53 178.75 493.82 164.34 493.82 146.57C493.896 139.699 492.238 132.92 489 126.86V126.86Z" fill="#F2F2F2"/>
<path opacity="0.03" d="M454.59 173.95C447.95 172.687 441.085 173.432 434.87 176.09C431.143 177.747 427.108 178.598 423.03 178.59C418.951 178.581 414.92 177.712 411.2 176.04C402.51 172.19 391.63 172.27 383.34 176.58C380.875 177.886 378.129 178.572 375.34 178.58C364.05 178.58 354.66 167.2 352.7 152.2C354.955 150.557 356.871 148.492 358.34 146.12C365 135.46 375.21 128.59 386.72 128.59C398.23 128.59 408.36 135.36 414.98 145.91C416.956 149.098 419.72 151.721 423.007 153.527C426.293 155.334 429.99 156.261 433.74 156.22H434C443 156.23 450.8 163.44 454.59 173.95Z" fill="black"/>
<path d="M966.07 150.42L957 156.19L962.53 146.19C960.968 144.927 959.028 144.223 957.02 144.19H956.88C956.247 144.199 955.615 144.152 954.99 144.05L951.9 146.05L953.2 143.59C951.015 142.829 949.125 141.397 947.8 139.5L942.28 143L945.77 136.66C944.301 134.765 942.429 133.22 940.29 132.137C938.15 131.054 935.797 130.461 933.4 130.4C927.65 130.4 922.54 133.82 919.24 139.14C918.259 140.725 916.877 142.022 915.233 142.9C913.589 143.778 911.742 144.206 909.88 144.14H909.57C903.23 144.14 898.09 151.33 898.09 160.14C898.09 168.95 903.23 176.19 909.57 176.19C910.965 176.185 912.337 175.842 913.57 175.19C915.728 174.142 918.087 173.575 920.485 173.528C922.884 173.481 925.263 173.956 927.46 174.92C929.319 175.747 931.33 176.175 933.365 176.175C935.4 176.175 937.411 175.747 939.27 174.92C941.451 173.976 943.809 173.511 946.184 173.558C948.56 173.604 950.898 174.161 953.04 175.19C954.273 175.842 955.645 176.186 957.04 176.19C963.38 176.19 968.52 169.01 968.52 160.14C968.53 156.746 967.687 153.404 966.07 150.42V150.42Z" fill="#F2F2F2"/>
<path opacity="0.03" d="M948.92 173.91C945.61 173.285 942.188 173.657 939.09 174.98C937.231 175.807 935.22 176.235 933.185 176.235C931.15 176.235 929.139 175.807 927.28 174.98C925.082 174.016 922.7 173.541 920.3 173.588C917.9 173.634 915.539 174.201 913.38 175.25C912.148 175.905 910.775 176.248 909.38 176.25C903.74 176.25 899.06 170.58 898.08 163.1C899.202 162.288 900.159 161.27 900.9 160.1C904.2 154.78 909.32 151.37 915.06 151.37C920.8 151.37 925.85 154.74 929.15 160C930.135 161.591 931.514 162.901 933.154 163.801C934.794 164.702 936.639 165.163 938.51 165.14H938.66C943.15 165.07 947 168.67 948.92 173.91Z" fill="black"/>
<path d="M370.34 299.86L385 309.14L376.12 292.99C378.638 290.986 381.752 289.877 384.97 289.84H385.2C386.205 289.855 387.208 289.781 388.2 289.62L393.15 292.76L391 288.9C394.507 287.667 397.539 285.366 399.67 282.32L408.54 287.94L403 277.75C408.19 271.53 415.18 267.75 422.87 267.75C432.1 267.75 440.31 273.23 445.62 281.75C447.185 284.303 449.396 286.398 452.03 287.822C454.664 289.246 457.627 289.949 460.62 289.86H461.12C471.3 289.86 479.55 301.4 479.55 315.64C479.55 329.88 471.3 341.43 461.12 341.43C458.878 341.421 456.672 340.869 454.69 339.82C451.224 338.136 447.434 337.226 443.582 337.151C439.73 337.077 435.908 337.841 432.38 339.39C429.391 340.726 426.154 341.417 422.88 341.417C419.606 341.417 416.369 340.726 413.38 339.39C409.877 337.873 406.09 337.126 402.273 337.2C398.457 337.274 394.701 338.168 391.26 339.82C389.298 340.841 387.121 341.379 384.91 341.39C374.72 341.39 366.47 329.85 366.47 315.6C366.422 310.112 367.753 304.7 370.34 299.86V299.86Z" fill="#F2F2F2"/>
<path opacity="0.03" d="M397.89 337.59C403.211 336.587 408.71 337.186 413.69 339.31C416.679 340.646 419.916 341.337 423.19 341.337C426.464 341.337 429.701 340.646 432.69 339.31C436.22 337.761 440.043 336.997 443.897 337.071C447.751 337.145 451.543 338.056 455.01 339.74C456.988 340.789 459.191 341.341 461.43 341.35C470.48 341.35 478 332.24 479.57 320.22C477.764 318.898 476.23 317.242 475.05 315.34C469.74 306.8 461.53 301.34 452.3 301.34C443.07 301.34 434.97 306.76 429.66 315.22C428.08 317.769 425.869 319.867 423.242 321.312C420.614 322.757 417.659 323.5 414.66 323.47H414.43C407.17 323.4 400.93 329.18 397.89 337.59Z" fill="black"/>
</g>
<defs>
<clipPath id="clip0">
<rect width="1108" height="731.18" fill="white" transform="translate(166 84)"/>
</clipPath>
</defs>
</svg>
